<?xml version="1.0" encoding="UTF-8" standalone="no"?>
<!-- Created with Inkscape (http://www.inkscape.org/) -->

<svg
   width="210mm"
   height="297mm"
   viewBox="0 0 210 297"
   version="1.1"
   id="svg1"
   inkscape:version="1.3.2 (091e20e, 2023-11-25, custom)"
   sodipodi:docname="buttons.svg"
   xmlns:inkscape="http://www.inkscape.org/namespaces/inkscape"
   xmlns:sodipodi="http://sodipodi.sourceforge.net/DTD/sodipodi-0.dtd"
   xmlns="http://www.w3.org/2000/svg"
   xmlns:svg="http://www.w3.org/2000/svg">
  <sodipodi:namedview
     id="namedview1"
     pagecolor="#505050"
     bordercolor="#ffffff"
     borderopacity="1"
     inkscape:showpageshadow="0"
     inkscape:pageopacity="0"
     inkscape:pagecheckerboard="1"
     inkscape:deskcolor="#505050"
     inkscape:document-units="mm"
     inkscape:zoom="2"
     inkscape:cx="529.25"
     inkscape:cy="143.75"
     inkscape:window-width="1920"
     inkscape:window-height="1121"
     inkscape:window-x="-9"
     inkscape:window-y="-9"
     inkscape:window-maximized="1"
     inkscape:current-layer="layer1" />
  <defs
     id="defs1">
    <inkscape:path-effect
       effect="powerclip"
       id="path-effect13"
       is_visible="true"
       lpeversion="1"
       inverse="true"
       flatten="false"
       hide_clip="false"
       message="Use fill-rule evenodd on &lt;b&gt;fill and stroke&lt;/b&gt; dialog if no flatten result after convert clip to paths." />
    <inkscape:path-effect
       effect="powerclip"
       id="path-effect8"
       is_visible="true"
       lpeversion="1"
       inverse="true"
       flatten="false"
       hide_clip="false"
       message="Use fill-rule evenodd on &lt;b&gt;fill and stroke&lt;/b&gt; dialog if no flatten result after convert clip to paths." />
    <inkscape:path-effect
       effect="powerclip"
       id="path-effect2"
       is_visible="true"
       lpeversion="1"
       inverse="true"
       flatten="false"
       hide_clip="false"
       message="Use fill-rule evenodd on &lt;b&gt;fill and stroke&lt;/b&gt; dialog if no flatten result after convert clip to paths." />
    <clipPath
       clipPathUnits="userSpaceOnUse"
       id="clipPath1">
      <circle
         style="display:none;fill:#030303;fill-opacity:1;stroke-width:0.963001"
         id="circle2"
         cx="131.22635"
         cy="39.877758"
         r="15"
         d="m 146.22635,39.877758 a 15,15 0 0 1 -15,15 15,15 0 0 1 -15,-15 15,15 0 0 1 15,-15 15,15 0 0 1 15,15 z" />
      <path
         id="lpe_path-effect2"
         style="fill:#030303;fill-opacity:1;stroke-width:0.963001"
         class="powerclip"
         d="m 109.22635,17.877758 h 44 v 44 h -44 z m 37,22 a 15,15 0 0 0 -15,-15 15,15 0 0 0 -15,15 15,15 0 0 0 15,15 15,15 0 0 0 15,-15 z" />
    </clipPath>
    <filter
       id="mask-powermask-path-effect6_inverse"
       inkscape:label="filtermask-powermask-path-effect6"
       style="color-interpolation-filters:sRGB"
       height="100"
       width="100"
       x="-50"
       y="-50">
      <feColorMatrix
         id="mask-powermask-path-effect6_primitive1"
         values="1"
         type="saturate"
         result="fbSourceGraphic" />
      <feColorMatrix
         id="mask-powermask-path-effect6_primitive2"
         values="-1 0 0 0 1 0 -1 0 0 1 0 0 -1 0 1 0 0 0 1 0 "
         in="fbSourceGraphic" />
    </filter>
    <clipPath
       clipPathUnits="userSpaceOnUse"
       id="clipPath6">
      <rect
         style="fill:#ffffff;fill-opacity:1;stroke-width:0.963001"
         id="rect6"
         width="12.189017"
         height="17.403685"
         x="116.18061"
         y="29.195549"
         ry="1.0207225"
         inkscape:label="rect3"
         transform="rotate(-45)" />
    </clipPath>
    <clipPath
       clipPathUnits="userSpaceOnUse"
       id="clipath_lpe_path-effect8">
      <circle
         style="display:none;fill:#030303;fill-opacity:1;stroke-width:0.963001"
         id="circle8"
         cx="131.22635"
         cy="39.877758"
         r="15"
         d="m 146.22635,39.877758 a 15,15 0 0 1 -15,15 15,15 0 0 1 -15,-15 15,15 0 0 1 15,-15 15,15 0 0 1 15,15 z" />
      <path
         id="lpe_path-effect8"
         style="fill:#030303;fill-opacity:1;stroke-width:0.963001"
         class="powerclip"
         d="m 109.22635,17.877758 h 44 v 44 h -44 z m 37,22 a 15,15 0 0 0 -15,-15 15,15 0 0 0 -15,15 15,15 0 0 0 15,15 15,15 0 0 0 15,-15 z" />
    </clipPath>
    <mask
       maskUnits="userSpaceOnUse"
       id="mask10">
      <rect
         style="fill:#ffffff;fill-opacity:1;stroke-width:2.69497"
         id="rect10"
         width="40.701866"
         height="44.164917"
         x="61.98402"
         y="74.125"
         ry="7.1501927"
         transform="matrix(0.8932433,-0.44957358,0.54929845,0.83562624,0,0)"
         d="m 69.134213,74.125 h 26.401481 c 3.961206,0 7.150196,3.188986 7.150196,7.150193 v 29.864527 c 0,3.96121 -3.18899,7.1502 -7.150196,7.1502 H 69.134213 c -3.961207,0 -7.150193,-3.18899 -7.150193,-7.1502 V 81.275193 c 0,-3.961207 3.188986,-7.150193 7.150193,-7.150193 z" />
    </mask>
    <clipPath
       clipPathUnits="userSpaceOnUse"
       id="clipath_lpe_path-effect13">
      <circle
         style="display:none;fill:#030303;fill-opacity:1;stroke-width:0.963001"
         id="circle13"
         cx="131.22635"
         cy="39.877758"
         r="15"
         d="m 146.22635,39.877758 a 15,15 0 0 1 -15,15 15,15 0 0 1 -15,-15 15,15 0 0 1 15,-15 15,15 0 0 1 15,15 z" />
      <path
         id="lpe_path-effect13"
         style="fill:#030303;fill-opacity:1;stroke-width:0.963001"
         class="powerclip"
         d="m 109.22635,17.877758 h 44 v 44 h -44 z m 37,22 a 15,15 0 0 0 -15,-15 15,15 0 0 0 -15,15 15,15 0 0 0 15,15 15,15 0 0 0 15,-15 z" />
    </clipPath>
  </defs>
  <g
     inkscape:label="Layer 1"
     inkscape:groupmode="layer"
     id="layer1">
    <path
       style="fill:#ffffff;fill-opacity:1;stroke-width:0.963001"
       id="path1"
       clip-path="url(#clipPath1)"
       inkscape:path-effect="#path-effect2"
       sodipodi:type="arc"
       sodipodi:cx="131.22635"
       sodipodi:cy="39.877758"
       sodipodi:rx="17"
       sodipodi:ry="17"
       d="m 148.22635,39.877758 a 17,17 0 0 1 -17,17 17,17 0 0 1 -17,-17 17,17 0 0 1 17,-17 17,17 0 0 1 17,17 z" />
    <rect
       style="fill:#ffffff;fill-opacity:1;stroke-width:1.38172"
       id="rect2"
       width="14.507324"
       height="3.6195595"
       x="127.31344"
       y="37.889"
       ry="1.8097798" />
    <rect
       style="fill:#ffffff;fill-opacity:1;stroke-width:0.963001"
       id="rect3"
       width="11.593077"
       height="11.107503"
       x="111.41059"
       y="-68.976814"
       ry="1.0207225"
       transform="rotate(45,-1.519097,2.4269286)"
       clip-path="url(#clipPath6)" />
    <ellipse
       style="fill:#ffffff;fill-opacity:1;stroke-width:0.974015"
       id="path6"
       cx="129.58342"
       cy="39.952084"
       rx="0.62232661"
       ry="7.376286" />
    <path
       style="fill:#ffffff;fill-opacity:1;stroke-width:0.963001"
       id="path7"
       clip-path="url(#clipath_lpe_path-effect8)"
       inkscape:path-effect="#path-effect8"
       sodipodi:type="arc"
       sodipodi:cx="131.22635"
       sodipodi:cy="39.877758"
       sodipodi:rx="17"
       sodipodi:ry="17"
       d="m 148.22635,39.877758 a 17,17 0 0 1 -17,17 17,17 0 0 1 -17,-17 17,17 0 0 1 17,-17 17,17 0 0 1 17,17 z"
       transform="translate(39.158333,0.33072917)"
       mask="url(#mask10)" />
    <rect
       style="fill:#ffffff;fill-opacity:1;stroke-width:0.963001"
       id="rect11"
       width="11.593077"
       height="11.107503"
       x="111.41059"
       y="-68.976814"
       ry="1.0207225"
       transform="rotate(-90,192.16961,-48.488759)"
       clip-path="url(#clipPath6)" />
    <ellipse
       style="fill:#ffffff;fill-opacity:1;stroke-width:0.974015"
       id="ellipse11"
       cx="-143.4566"
       cy="106.74054"
       rx="0.62232661"
       ry="7.376286"
       transform="rotate(-135)" />
    <path
       style="fill:#ffffff;fill-opacity:1;stroke-width:1.22493"
       id="path11"
       sodipodi:type="arc"
       sodipodi:cx="-185.80345"
       sodipodi:cy="40.153271"
       sodipodi:rx="1.6167637"
       sodipodi:ry="4.7579169"
       sodipodi:start="1.1126754"
       sodipodi:end="5.3524066"
       sodipodi:arc-type="slice"
       d="m -185.08842,44.420576 a 1.6167637,4.7579169 0 0 1 -2.03493,-1.519568 1.6167637,4.7579169 0 0 1 0.19067,-6.152793 1.6167637,4.7579169 0 0 1 2.09478,-0.411199 l -0.96555,3.816255 z"
       transform="scale(-1,1)" />
    <path
       style="fill:#ffffff;fill-opacity:1;stroke-width:0.963001"
       id="path12"
       clip-path="url(#clipath_lpe_path-effect13)"
       inkscape:path-effect="#path-effect13"
       sodipodi:type="arc"
       sodipodi:cx="131.22635"
       sodipodi:cy="39.877758"
       sodipodi:rx="17"
       sodipodi:ry="17"
       d="m 148.22635,39.877758 a 17,17 0 0 1 -17,17 17,17 0 0 1 -17,-17 17,17 0 0 1 17,-17 17,17 0 0 1 17,17 z" />
  </g>
</svg>
