<?xml version="1.0" encoding="UTF-8" standalone="no"?>
<!-- Created with Inkscape (http://www.inkscape.org/) -->

<svg
   width="210mm"
   height="297mm"
   viewBox="0 0 210 297"
   version="1.1"
   id="svg1"
   sodipodi:docname="drawing.svg"
   inkscape:version="1.3.2 (091e20e, 2023-11-25, custom)"
   xmlns:inkscape="http://www.inkscape.org/namespaces/inkscape"
   xmlns:sodipodi="http://sodipodi.sourceforge.net/DTD/sodipodi-0.dtd"
   xmlns="http://www.w3.org/2000/svg"
   xmlns:svg="http://www.w3.org/2000/svg">
  <sodipodi:namedview
     id="namedview1"
     pagecolor="#505050"
     bordercolor="#ffffff"
     borderopacity="1"
     inkscape:showpageshadow="0"
     inkscape:pageopacity="0"
     inkscape:pagecheckerboard="1"
     inkscape:deskcolor="#505050"
     inkscape:document-units="mm"
     inkscape:zoom="6.1647026"
     inkscape:cx="294.66142"
     inkscape:cy="241.29307"
     inkscape:window-width="1920"
     inkscape:window-height="1121"
     inkscape:window-x="-9"
     inkscape:window-y="-9"
     inkscape:window-maximized="1"
     inkscape:current-layer="layer1" />
  <defs
     id="defs1">
    <inkscape:path-effect
       effect="powermask"
       id="path-effect15"
       is_visible="true"
       lpeversion="1"
       uri="#mask-powermask-path-effect15"
       invert="false"
       hide_mask="false"
       background="true"
       background_color="#ffffffff" />
    <inkscape:path-effect
       effect="powermask"
       id="path-effect12"
       is_visible="true"
       lpeversion="1"
       uri="#mask-powermask-path-effect12"
       invert="false"
       hide_mask="false"
       background="true"
       background_color="#ffffffff" />
    <inkscape:path-effect
       effect="powermask"
       id="path-effect2"
       is_visible="true"
       lpeversion="1"
       uri="#mask-powermask-path-effect2"
       invert="false"
       hide_mask="false"
       background="true"
       background_color="#ffffffff" />
    <inkscape:path-effect
       effect="powermask"
       id="path-effect13"
       is_visible="true"
       lpeversion="1"
       uri="#mask-powermask-path-effect13"
       invert="false"
       hide_mask="false"
       background="true"
       background_color="#ffffffff" />
    <inkscape:path-effect
       effect="powerclip"
       id="path-effect9"
       is_visible="true"
       lpeversion="1"
       inverse="true"
       flatten="false"
       hide_clip="false"
       message="Use fill-rule evenodd on &lt;b&gt;fill and stroke&lt;/b&gt; dialog if no flatten result after convert clip to paths." />
    <inkscape:path-effect
       effect="powerclip"
       id="path-effect3"
       is_visible="true"
       lpeversion="1"
       inverse="true"
       flatten="false"
       hide_clip="false"
       message="Use fill-rule evenodd on &lt;b&gt;fill and stroke&lt;/b&gt; dialog if no flatten result after convert clip to paths." />
    <clipPath
       clipPathUnits="userSpaceOnUse"
       id="clipPath3">
      <rect
         style="display:none;fill:#000000;fill-opacity:1;stroke-width:0.433483"
         id="rect3"
         width="11.26039"
         height="14.169676"
         x="129.17863"
         y="85.267509"
         ry="1.0231103"
         d="m 130.20174,85.267509 h 9.21417 c 0.56681,0 1.02311,0.456308 1.02311,1.023111 v 12.123455 c 0,0.566803 -0.4563,1.02311 -1.02311,1.02311 h -9.21417 c -0.5668,0 -1.02311,-0.456307 -1.02311,-1.02311 V 86.29062 c 0,-0.566803 0.45631,-1.023111 1.02311,-1.023111 z" />
      <path
         id="lpe_path-effect3"
         style="fill:#000000;fill-opacity:1;stroke-width:0.433483"
         class="powerclip"
         d="m 114.05752,70.06546 h 41.41676 v 30.72991 h -41.41676 z m 16.14422,15.202049 c -0.5668,0 -1.02311,0.456308 -1.02311,1.023111 v 12.123455 c 0,0.566803 0.45631,1.02311 1.02311,1.02311 h 9.21417 c 0.56681,0 1.02311,-0.456307 1.02311,-1.02311 V 86.29062 c 0,-0.566803 -0.4563,-1.023111 -1.02311,-1.023111 z" />
    </clipPath>
    <clipPath
       clipPathUnits="userSpaceOnUse"
       id="clipPath6">
      <rect
         style="fill:#000000;fill-opacity:1;stroke-width:0.963001"
         id="rect6"
         width="52.320587"
         height="26.403082"
         x="108.74015"
         y="28.783684"
         ry="1.6920612"
         transform="rotate(-45)" />
    </clipPath>
    <clipPath
       clipPathUnits="userSpaceOnUse"
       id="clipPath9">
      <rect
         style="display:none;fill:#000000;fill-opacity:1;stroke-width:1.08344"
         id="rect9"
         width="36.180779"
         height="21.287861"
         x="64.372513"
         y="41.054211"
         ry="1.6920612"
         d="M 66.064574,41.054211 H 98.86123 c 0.937402,0 1.69206,0.754659 1.69206,1.692061 V 60.65001 c 0,0.937402 -0.754658,1.692062 -1.69206,1.692062 H 66.064574 c -0.937402,0 -1.692061,-0.75466 -1.692061,-1.692062 V 42.746272 c 0,-0.937402 0.754659,-1.692061 1.692061,-1.692061 z" />
      <path
         id="lpe_path-effect9"
         style="fill:#000000;fill-opacity:1;stroke-width:1.08344"
         class="powerclip"
         d="M 63.584679,50.623123 H 100.28718 V 81.910984 H 63.584679 Z m 2.479895,-9.568912 c -0.937402,0 -1.692061,0.754659 -1.692061,1.692061 V 60.65001 c 0,0.937402 0.754659,1.692062 1.692061,1.692062 H 98.86123 c 0.937402,0 1.69206,-0.75466 1.69206,-1.692062 V 42.746272 c 0,-0.937402 -0.754658,-1.692061 -1.69206,-1.692061 z" />
    </clipPath>
    <filter
       id="mask-powermask-path-effect15_inverse"
       inkscape:label="filtermask-powermask-path-effect15"
       style="color-interpolation-filters:sRGB"
       height="100"
       width="100"
       x="-50"
       y="-50">
      <feColorMatrix
         id="mask-powermask-path-effect15_primitive1"
         values="1"
         type="saturate"
         result="fbSourceGraphic" />
      <feColorMatrix
         id="mask-powermask-path-effect15_primitive2"
         values="-1 0 0 0 1 0 -1 0 0 1 0 0 -1 0 1 0 0 0 1 0 "
         in="fbSourceGraphic" />
    </filter>
    <filter
       id="mask-powermask-path-effect2_inverse"
       inkscape:label="filtermask-powermask-path-effect2"
       style="color-interpolation-filters:sRGB"
       height="100"
       width="100"
       x="-50"
       y="-50">
      <feColorMatrix
         id="mask-powermask-path-effect2_primitive1"
         values="1"
         type="saturate"
         result="fbSourceGraphic" />
      <feColorMatrix
         id="mask-powermask-path-effect2_primitive2"
         values="-1 0 0 0 1 0 -1 0 0 1 0 0 -1 0 1 0 0 0 1 0 "
         in="fbSourceGraphic" />
    </filter>
    <mask
       maskUnits="userSpaceOnUse"
       id="mask-powermask-path-effect2">
      <path
         id="mask-powermask-path-effect2_box"
         style="fill:#ffffff;fill-opacity:1"
         d="M 77.271176,25.27088 H 105.59473 V 49.140054 H 77.271176 Z" />
    </mask>
    <filter
       id="mask-powermask-path-effect10_inverse"
       inkscape:label="filtermask-powermask-path-effect10"
       style="color-interpolation-filters:sRGB"
       height="100"
       width="100"
       x="-50"
       y="-50">
      <feColorMatrix
         id="mask-powermask-path-effect10_primitive1"
         values="1"
         type="saturate"
         result="fbSourceGraphic" />
      <feColorMatrix
         id="mask-powermask-path-effect10_primitive2"
         values="-1 0 0 0 1 0 -1 0 0 1 0 0 -1 0 1 0 0 0 1 0 "
         in="fbSourceGraphic" />
    </filter>
    <filter
       id="mask-powermask-path-effect11_inverse"
       inkscape:label="filtermask-powermask-path-effect11"
       style="color-interpolation-filters:sRGB"
       height="100"
       width="100"
       x="-50"
       y="-50">
      <feColorMatrix
         id="mask-powermask-path-effect11_primitive1"
         values="1"
         type="saturate"
         result="fbSourceGraphic" />
      <feColorMatrix
         id="mask-powermask-path-effect11_primitive2"
         values="-1 0 0 0 1 0 -1 0 0 1 0 0 -1 0 1 0 0 0 1 0 "
         in="fbSourceGraphic" />
    </filter>
    <mask
       maskUnits="userSpaceOnUse"
       id="mask-powermask-path-effect12">
      <path
         id="mask-powermask-path-effect12_box"
         style="fill:#ffffff;fill-opacity:1"
         d="M 67.584679,54.623123 H 96.287182 V 77.910984 H 67.584679 Z" />
      <rect
         style="fill:#000000;fill-opacity:1;stroke-width:1.0585"
         id="rect12"
         width="5.4486284"
         height="3.1958838"
         x="69.250443"
         y="63.130867"
         ry="1.5979419"
         d="m 70.848384,63.130867 h 2.252745 c 0.88526,0 1.597942,0.712682 1.597942,1.597942 0,0.88526 -0.712682,1.597942 -1.597942,1.597942 h -2.252745 c -0.885259,0 -1.597941,-0.712682 -1.597941,-1.597942 0,-0.88526 0.712682,-1.597942 1.597941,-1.597942 z" />
    </mask>
    <filter
       id="mask-powermask-path-effect12_inverse"
       inkscape:label="filtermask-powermask-path-effect12"
       style="color-interpolation-filters:sRGB"
       height="100"
       width="100"
       x="-50"
       y="-50">
      <feColorMatrix
         id="mask-powermask-path-effect12_primitive1"
         values="1"
         type="saturate"
         result="fbSourceGraphic" />
      <feColorMatrix
         id="mask-powermask-path-effect12_primitive2"
         values="-1 0 0 0 1 0 -1 0 0 1 0 0 -1 0 1 0 0 0 1 0 "
         in="fbSourceGraphic" />
    </filter>
    <mask
       maskUnits="userSpaceOnUse"
       id="mask-powermask-path-effect15">
      <path
         id="mask-powermask-path-effect15_box"
         style="fill:#ffffff;fill-opacity:1"
         d="M 77.270991,25.25856 H 105.9046 V 50.853211 H 77.270991 Z" />
    </mask>
  </defs>
  <g
     inkscape:label="Layer 1"
     inkscape:groupmode="layer"
     id="layer1">
    <path
       style="fill:#ffffff;stroke-width:0.875778"
       id="rect1"
       width="31.416761"
       height="20.729912"
       x="119.05752"
       y="75.06546"
       ry="1.4967871"
       clip-path="url(#clipPath3)"
       inkscape:path-effect="#path-effect3"
       sodipodi:type="rect"
       d="m 120.55431,75.06546 h 28.42318 c 0.82922,0 1.49679,0.667567 1.49679,1.496787 v 17.736338 c 0,0.82922 -0.66757,1.496787 -1.49679,1.496787 h -28.42318 c -0.82922,0 -1.49679,-0.667567 -1.49679,-1.496787 V 76.562247 c 0,-0.82922 0.66757,-1.496787 1.49679,-1.496787 z"
       transform="matrix(1,0,0,0.90923266,0,8.6950908)" />
    <rect
       style="fill:#ffffff;fill-opacity:1;stroke-width:0.796085"
       id="rect4"
       width="29.614"
       height="29.614"
       x="116.90481"
       y="-75.564438"
       ry="1.6920611"
       transform="matrix(0.67907109,0.58984793,-0.67907109,0.58984793,3.8435595,35.233426)"
       mask="none"
       clip-path="url(#clipPath6)" />
    <path
       style="fill:#ffffff;fill-opacity:1;stroke-width:0.930766"
       id="rect7"
       width="26.702503"
       height="21.287861"
       x="68.584679"
       y="55.623123"
       ry="1.6920611"
       clip-path="url(#clipPath9)"
       inkscape:path-effect="#path-effect9;#path-effect12"
       sodipodi:type="rect"
       d="m 70.27674,55.623123 h 23.318381 c 0.937402,0 1.692061,0.754659 1.692061,1.692061 v 17.903739 c 0,0.937402 -0.754659,1.692061 -1.692061,1.692061 H 70.27674 c -0.937402,0 -1.692061,-0.754659 -1.692061,-1.692061 V 57.315184 c 0,-0.937402 0.754659,-1.692061 1.692061,-1.692061 z"
       transform="matrix(0.8939705,0,0,0.92586784,10.113614,5.1233391)"
       mask="url(#mask-powermask-path-effect12)" />
    <path
       id="rect10"
       mask="url(#mask-powermask-path-effect2)"
       style="fill:#ffffff;fill-opacity:1;stroke-width:0.997549"
       d="M 79.764084 29.080326 C 79.686056 29.093206 79.613544 29.122033 79.543114 29.157448 C 78.811265 29.345625 78.270991 30.002655 78.270991 30.794826 L 78.271392 46.444601 C 78.271392 46.458696 78.273015 46.472108 78.273354 46.486118 A 2.4625123 1.0577855 79.040641 0 0 78.364385 47.600807 A 2.4625123 1.0577855 79.040641 0 0 79.794028 49.847795 C 79.818282 49.852493 79.842855 49.855276 79.866749 49.851332 L 83.439831 49.261515 C 83.48134 49.261388 83.522687 49.260988 83.563817 49.254199 L 100.59859 46.442232 L 104.2211 45.844256 C 104.24771 45.839864 104.27336 45.829627 104.29645 45.815082 A 2.4625123 1.0577855 79.040641 0 0 104.81066 43.248413 A 2.4625123 1.0577855 79.040641 0 0 104.51041 42.217275 C 104.49976 42.18418 104.49002 42.151687 104.47721 42.11875 L 98.760675 27.41255 C 98.487852 26.710729 97.807796 26.277517 97.097044 26.277715 C 96.997137 26.256732 96.897268 26.252114 96.798861 26.268359 L 79.764084 29.080326 z "
       transform="matrix(0.88213302,0.07135579,-0.16614904,0.43227031,10.113614,34.378007)" />
    <path
       id="path11"
       mask="url(#mask-powermask-path-effect15)"
       style="fill:#ffffff;fill-opacity:1;stroke-width:0.997549"
       d="m 79.764084,29.080326 c -0.07803,0.01288 -0.15054,0.04171 -0.22097,0.07712 -0.731849,0.188177 -1.272123,0.845207 -1.272123,1.637378 l 4.01e-4,15.649775 c 0,0.0141 0.0016,0.02751 0.002,0.04152 a 2.4625123,1.0577855 79.040641 0 0 0.09103,1.114689 2.4625123,1.0577855 79.040641 0 0 1.429643,2.246988 c 0.02425,0.0047 0.04883,0.0075 0.07272,0.0035 l 3.573082,-0.589817 c 0.04151,-1.27e-4 0.08286,-5.27e-4 0.123986,-0.0073 l 17.034777,-2.811967 3.62251,-0.597976 c 0.0266,-0.0044 0.0523,-0.01463 0.0753,-0.02917 a 2.4625123,1.0577855 79.040641 0 0 0.51421,-2.566669 2.4625123,1.0577855 79.040641 0 0 -0.30025,-1.031138 c -0.0106,-0.0331 -0.0204,-0.06559 -0.0332,-0.09853 l -5.716539,-14.7062 c -0.272823,-0.701821 -0.952879,-1.135033 -1.663631,-1.134835 -0.09991,-0.02098 -0.199776,-0.0256 -0.298183,-0.0094 z"
       transform="matrix(-0.88213302,0.07135579,0.16614904,0.43227031,156.60386,34.378007)"
       inkscape:path-effect="#path-effect15"
       inkscape:original-d="m 79.764084,29.080326 c -0.07803,0.01288 -0.15054,0.04171 -0.22097,0.07712 -0.731849,0.188177 -1.272123,0.845207 -1.272123,1.637378 l 4.01e-4,15.649775 c 0,0.0141 0.0016,0.02751 0.002,0.04152 a 2.4625123,1.0577855 79.040641 0 0 0.09103,1.114689 2.4625123,1.0577855 79.040641 0 0 1.429643,2.246988 c 0.02425,0.0047 0.04883,0.0075 0.07272,0.0035 l 3.573082,-0.589817 c 0.04151,-1.27e-4 0.08286,-5.27e-4 0.123986,-0.0073 l 17.034773,-2.811967 3.62251,-0.597976 c 0.0266,-0.0044 0.0523,-0.01463 0.0753,-0.02917 a 2.4625123,1.0577855 79.040641 0 0 0.51421,-2.566669 2.4625123,1.0577855 79.040641 0 0 -0.30025,-1.031138 c -0.0106,-0.0331 -0.0204,-0.06559 -0.0332,-0.09853 l -5.716535,-14.7062 c -0.272823,-0.701821 -0.952879,-1.135033 -1.663631,-1.134835 -0.09991,-0.02098 -0.199776,-0.0256 -0.298183,-0.0094 z" />
    <rect
       style="fill:#000000;fill-opacity:1;stroke-width:0.963001"
       id="rect11"
       width="1.995737"
       height="11.58815"
       x="82.213013"
       y="50.971611"
       ry="0.99786848" />
  </g>
</svg>
